<mxfile host="app.diagrams.net" modified="2022-05-29T15:40:36.612Z" agent="5.0 (Macintosh; Intel Mac OS X 10_15_7) AppleWebKit/537.36 (KHTML, like Gecko) Chrome/102.0.5005.61 Safari/537.36" etag="9X2AyXs4MRXAKJTMrC6d" version="18.1.3" type="github">
  <diagram id="3yzu9L9B9edSbVnxSeDY" name="Page-1">
    <mxGraphModel dx="727" dy="471" grid="1" gridSize="10" guides="1" tooltips="1" connect="1" arrows="1" fold="1" page="1" pageScale="1" pageWidth="850" pageHeight="1100" math="0" shadow="0">
      <root>
        <mxCell id="0" />
        <mxCell id="1" parent="0" />
        <mxCell id="yQbNn83YkBJZnv28kB2a-3" value="&lt;font style=&quot;font-size: 18px;&quot;&gt;Question: F(x) = 0, what x is?&lt;/font&gt;" style="text;html=1;strokeColor=none;fillColor=none;align=center;verticalAlign=middle;whiteSpace=wrap;rounded=0;" vertex="1" parent="1">
          <mxGeometry x="245" y="230" width="290" height="10" as="geometry" />
        </mxCell>
        <mxCell id="yQbNn83YkBJZnv28kB2a-5" value="" style="shape=image;verticalLabelPosition=bottom;labelBackgroundColor=default;verticalAlign=top;aspect=fixed;imageAspect=0;image=https://upload.wikimedia.org/wikipedia/commons/thumb/c/cb/Noun_Project_people_icon_3376085.svg/1024px-Noun_Project_people_icon_3376085.svg.png;" vertex="1" parent="1">
          <mxGeometry x="160" y="300" width="110" height="110" as="geometry" />
        </mxCell>
        <mxCell id="yQbNn83YkBJZnv28kB2a-6" value="" style="shape=image;verticalLabelPosition=bottom;labelBackgroundColor=default;verticalAlign=top;aspect=fixed;imageAspect=0;image=https://upload.wikimedia.org/wikipedia/commons/thumb/c/cb/Noun_Project_people_icon_3376085.svg/1024px-Noun_Project_people_icon_3376085.svg.png;" vertex="1" parent="1">
          <mxGeometry x="500" y="300" width="110" height="110" as="geometry" />
        </mxCell>
        <mxCell id="yQbNn83YkBJZnv28kB2a-7" value="Alice" style="text;html=1;strokeColor=none;fillColor=none;align=center;verticalAlign=middle;whiteSpace=wrap;rounded=0;fontSize=18;" vertex="1" parent="1">
          <mxGeometry x="185" y="400" width="60" height="30" as="geometry" />
        </mxCell>
        <mxCell id="yQbNn83YkBJZnv28kB2a-8" value="Bob" style="text;html=1;strokeColor=none;fillColor=none;align=center;verticalAlign=middle;whiteSpace=wrap;rounded=0;fontSize=18;" vertex="1" parent="1">
          <mxGeometry x="525" y="400" width="60" height="30" as="geometry" />
        </mxCell>
        <mxCell id="yQbNn83YkBJZnv28kB2a-11" value="" style="endArrow=classic;html=1;rounded=0;fontSize=18;entryX=0;entryY=0.25;entryDx=0;entryDy=0;fillColor=#d5e8d4;strokeColor=#97D077;strokeWidth=2;" edge="1" parent="1">
          <mxGeometry width="50" height="50" relative="1" as="geometry">
            <mxPoint x="280" y="410.5" as="sourcePoint" />
            <mxPoint x="500" y="410" as="targetPoint" />
          </mxGeometry>
        </mxCell>
        <mxCell id="yQbNn83YkBJZnv28kB2a-13" value="" style="endArrow=classic;html=1;rounded=0;fontSize=18;entryX=0;entryY=0.25;entryDx=0;entryDy=0;fillColor=#d5e8d4;strokeColor=#97D077;strokeWidth=2;" edge="1" parent="1">
          <mxGeometry width="50" height="50" relative="1" as="geometry">
            <mxPoint x="280" y="350.5" as="sourcePoint" />
            <mxPoint x="500" y="350" as="targetPoint" />
          </mxGeometry>
        </mxCell>
        <mxCell id="yQbNn83YkBJZnv28kB2a-15" value="" style="endArrow=classic;html=1;rounded=0;fontSize=18;exitX=-0.027;exitY=0.182;exitDx=0;exitDy=0;exitPerimeter=0;fillColor=#f8cecc;strokeColor=#FF6666;strokeWidth=2;" edge="1" parent="1" source="yQbNn83YkBJZnv28kB2a-6">
          <mxGeometry width="50" height="50" relative="1" as="geometry">
            <mxPoint x="480" y="320" as="sourcePoint" />
            <mxPoint x="280" y="320" as="targetPoint" />
          </mxGeometry>
        </mxCell>
        <mxCell id="yQbNn83YkBJZnv28kB2a-16" value="" style="endArrow=classic;html=1;rounded=0;fontSize=18;exitX=-0.027;exitY=0.182;exitDx=0;exitDy=0;exitPerimeter=0;fillColor=#f8cecc;strokeColor=#FF6666;strokeWidth=2;" edge="1" parent="1">
          <mxGeometry width="50" height="50" relative="1" as="geometry">
            <mxPoint x="493.52" y="380.02" as="sourcePoint" />
            <mxPoint x="276.49" y="380" as="targetPoint" />
          </mxGeometry>
        </mxCell>
        <mxCell id="yQbNn83YkBJZnv28kB2a-17" value="&lt;font color=&quot;#ff6666&quot; style=&quot;font-size: 12px;&quot;&gt;question&lt;/font&gt;" style="text;html=1;strokeColor=none;fillColor=none;align=center;verticalAlign=middle;whiteSpace=wrap;rounded=0;fontSize=18;" vertex="1" parent="1">
          <mxGeometry x="355" y="290" width="60" height="30" as="geometry" />
        </mxCell>
        <mxCell id="yQbNn83YkBJZnv28kB2a-18" value="&lt;font color=&quot;#ff6666&quot; style=&quot;font-size: 12px;&quot;&gt;question&lt;/font&gt;" style="text;html=1;strokeColor=none;fillColor=none;align=center;verticalAlign=middle;whiteSpace=wrap;rounded=0;fontSize=18;" vertex="1" parent="1">
          <mxGeometry x="355" y="350" width="60" height="30" as="geometry" />
        </mxCell>
        <mxCell id="yQbNn83YkBJZnv28kB2a-19" value="&lt;font color=&quot;#97d077&quot; style=&quot;font-size: 12px;&quot;&gt;answer&lt;/font&gt;" style="text;html=1;strokeColor=none;fillColor=none;align=center;verticalAlign=middle;whiteSpace=wrap;rounded=0;fontSize=18;" vertex="1" parent="1">
          <mxGeometry x="355" y="320" width="60" height="30" as="geometry" />
        </mxCell>
        <mxCell id="yQbNn83YkBJZnv28kB2a-20" value="&lt;font color=&quot;#97d077&quot; style=&quot;font-size: 12px;&quot;&gt;answer&lt;/font&gt;" style="text;html=1;strokeColor=none;fillColor=none;align=center;verticalAlign=middle;whiteSpace=wrap;rounded=0;fontSize=18;" vertex="1" parent="1">
          <mxGeometry x="355" y="380" width="60" height="30" as="geometry" />
        </mxCell>
      </root>
    </mxGraphModel>
  </diagram>
</mxfile>
